<?xml version="1.0" encoding="UTF-8" standalone="no"?>
<!-- Generator: Adobe Illustrator 19.0.0, SVG Export Plug-In . SVG Version: 6.00 Build 0)  -->

<svg
   xmlns:dc="http://purl.org/dc/elements/1.1/"
   xmlns:cc="http://creativecommons.org/ns#"
   xmlns:rdf="http://www.w3.org/1999/02/22-rdf-syntax-ns#"
   xmlns:svg="http://www.w3.org/2000/svg"
   xmlns="http://www.w3.org/2000/svg"
   xmlns:sodipodi="http://sodipodi.sourceforge.net/DTD/sodipodi-0.dtd"
   xmlns:inkscape="http://www.inkscape.org/namespaces/inkscape"
   version="1.1"
   id="Capa_1"
   x="0px"
   y="0px"
   viewBox="0 0 240.823 240.823"
   style="enable-background:new 0 0 240.823 240.823;"
   xml:space="preserve"
   width="512px"
   height="512px"
   inkscape:version="0.91 r13725"
   sodipodi:docname="next.svg"><metadata
     id="metadata52"><rdf:RDF><cc:Work
         rdf:about=""><dc:format>image/svg+xml</dc:format><dc:type
           rdf:resource="http://purl.org/dc/dcmitype/StillImage" /></cc:Work></rdf:RDF></metadata><defs
     id="defs50" /><sodipodi:namedview
     pagecolor="#ffffff"
     bordercolor="#666666"
     borderopacity="1"
     objecttolerance="10"
     gridtolerance="10"
     guidetolerance="10"
     inkscape:pageopacity="0"
     inkscape:pageshadow="2"
     inkscape:window-width="1366"
     inkscape:window-height="715"
     id="namedview48"
     showgrid="false"
     inkscape:zoom="1.3037281"
     inkscape:cx="163.64099"
     inkscape:cy="327.64031"
     inkscape:window-x="-8"
     inkscape:window-y="-8"
     inkscape:window-maximized="1"
     inkscape:current-layer="Capa_1"
     inkscape:object-paths="true" /><g
     id="g3"><path
       id="Chevron_Right_1_"
       d="M183.189,111.816L74.892,3.555c-4.752-4.74-12.451-4.74-17.215,0c-4.752,4.74-4.752,12.439,0,17.179   l99.707,99.671l-99.695,99.671c-4.752,4.74-4.752,12.439,0,17.191c4.752,4.74,12.463,4.74,17.215,0l108.297-108.261   C187.881,124.315,187.881,116.495,183.189,111.816z"
       fill="#FFFFFF" /><g
       id="g6" /><g
       id="g8" /><g
       id="g10" /><g
       id="g12" /><g
       id="g14" /><g
       id="g16" /></g><g
     id="g18" /><g
     id="g20" /><g
     id="g22" /><g
     id="g24" /><g
     id="g26" /><g
     id="g28" /><g
     id="g30" /><g
     id="g32" /><g
     id="g34" /><g
     id="g36" /><g
     id="g38" /><g
     id="g40" /><g
     id="g42" /><g
     id="g44" /><g
     id="g46" /><g
     id="g3665"
     transform="matrix(-0.00480516,0.99998846,-0.99998846,-0.00480516,239.32364,-5.2808371)"><g
       id="g3614"><path
         d="M 183.189,111.816 74.892,3.555 c -4.752,-4.74 -12.451,-4.74 -17.215,0 -4.752,4.74 -4.752,12.439 0,17.179 l 99.707,99.671 -99.695,99.671 c -4.752,4.74 -4.752,12.439 0,17.191 4.752,4.74 12.463,4.74 17.215,0 L 183.201,129.006 c 4.68,-4.691 4.68,-12.511 -0.012,-17.19 z"
         id="Chevron_Right_1_-0"
         inkscape:connector-curvature="0"
         style="fill:#ffffff" /><g
         id="g3617" /><g
         id="g3619" /><g
         id="g3621" /><g
         id="g3623" /><g
         id="g3625" /><g
         id="g3627" /></g><g
       id="g3629" /><g
       id="g3631" /><g
       id="g3633" /><g
       id="g3635" /><g
       id="g3637" /><g
       id="g3639" /><g
       id="g3641" /><g
       id="g3643" /><g
       id="g3645" /><g
       id="g3647" /><g
       id="g3649" /><g
       id="g3651" /><g
       id="g3653" /><g
       id="g3655" /><g
       id="g3657" /></g><rect
     style="fill:#000000"
     id="rect3696"
     width="241.9447"
     height="255.20833"
     x="-0.20382947"
     y="5.4880619" /><g
     id="g4004"
     transform="matrix(1.0190461,0,0,1,-16.094498,16.146934)"><g
       id="g3953"><g
         id="g3956" /><g
         id="g3958" /><g
         id="g3960" /><g
         id="g3962" /><g
         id="g3964" /><g
         id="g3966" /></g><g
       id="g3968" /><g
       id="g3970" /><g
       id="g3972" /><g
       id="g3974" /><g
       id="g3976" /><g
       id="g3978" /><g
       id="g3980" /><g
       id="g3982" /><g
       id="g3984" /><g
       id="g3986" /><g
       id="g3988" /><g
       id="g3990" /><g
       id="g3992" /><g
       id="g3994" /><g
       id="g3996" /></g><g
     id="g4081"
     transform="matrix(0,1,-1,0,241.54171,2.076311)"><g
       id="g4030"><path
         d="M 183.189,111.816 74.892,3.555 c -4.752,-4.74 -12.451,-4.74 -17.215,0 -4.752,4.74 -4.752,12.439 0,17.179 l 99.707,99.671 -99.695,99.671 c -4.752,4.74 -4.752,12.439 0,17.191 4.752,4.74 12.463,4.74 17.215,0 L 183.201,129.006 c 4.68,-4.691 4.68,-12.511 -0.012,-17.19 z"
         id="Chevron_Right_1_-4"
         inkscape:connector-curvature="0"
         style="fill:#ffffff" /><g
         id="g4033" /><g
         id="g4035" /><g
         id="g4037" /><g
         id="g4039" /><g
         id="g4041" /><g
         id="g4043" /></g><g
       id="g4045" /><g
       id="g4047" /><g
       id="g4049" /><g
       id="g4051" /><g
       id="g4053" /><g
       id="g4055" /><g
       id="g4057" /><g
       id="g4059" /><g
       id="g4061" /><g
       id="g4063" /><g
       id="g4065" /><g
       id="g4067" /><g
       id="g4069" /><g
       id="g4071" /><g
       id="g4073" /></g></svg>